<mxfile host="65bd71144e">
    <diagram id="HIP3nbAZw_EuaXWnEj3U" name="Page-1">
        <mxGraphModel dx="1552" dy="477" grid="1" gridSize="10" guides="1" tooltips="1" connect="1" arrows="1" fold="1" page="1" pageScale="1" pageWidth="850" pageHeight="1100" math="0" shadow="0">
            <root>
                <mxCell id="0"/>
                <mxCell id="1" parent="0"/>
                <mxCell id="7" value="http://ics2o.mths.ca" style="swimlane;whiteSpace=wrap;html=1;" vertex="1" parent="1">
                    <mxGeometry x="40" y="40" width="760" height="480" as="geometry"/>
                </mxCell>
                <mxCell id="8" value="&lt;font style=&quot;font-size: 35px;&quot;&gt;&lt;br&gt;&lt;/font&gt;&lt;div style=&quot;color: rgb(230, 237, 243); font-family: Consolas, &amp;quot;Courier New&amp;quot;, monospace; font-weight: normal; line-height: 19px; font-size: 35px;&quot;&gt;&lt;div&gt;&lt;span style=&quot;color: #e6edf3;&quot;&gt;&lt;font style=&quot;font-size: 35px;&quot;&gt;Fahrenheit to Celsius with JavaScript&lt;/font&gt;&lt;/span&gt;&lt;/div&gt;&lt;/div&gt;&lt;font style=&quot;font-size: 35px;&quot;&gt;&lt;br&gt;&lt;/font&gt;" style="whiteSpace=wrap;html=1;fillColor=#0050ef;fontColor=#ffffff;strokeColor=#001DBC;" vertex="1" parent="7">
                    <mxGeometry y="20" width="760" height="60" as="geometry"/>
                </mxCell>
                <mxCell id="9" value="&lt;font style=&quot;font-size: 36px;&quot;&gt;Enter&amp;nbsp;&lt;/font&gt;&lt;span style=&quot;color: rgb(230, 237, 243); font-family: Consolas, &amp;quot;Courier New&amp;quot;, monospace; font-size: 35px;&quot;&gt;Fahrenheit Value&lt;/span&gt;" style="text;html=1;align=center;verticalAlign=middle;resizable=0;points=[];autosize=1;strokeColor=none;fillColor=none;" vertex="1" parent="7">
                    <mxGeometry y="130" width="430" height="60" as="geometry"/>
                </mxCell>
                <mxCell id="14" value="&lt;font style=&quot;font-size: 18px;&quot;&gt;&lt;span style=&quot;color: rgb(254, 254, 255); font-family: Helvetica, Arial, sans-serif; text-align: start;&quot;&gt;The temperature in celcius is:&lt;/span&gt;&amp;nbsp;-3.611&lt;span style=&quot;color: rgb(254, 254, 255); font-family: Helvetica, Arial, sans-serif; text-align: start;&quot;&gt;&amp;nbsp;&lt;/span&gt;&lt;/font&gt;&lt;span style=&quot;font-family: Consolas, &amp;quot;Courier New&amp;quot;, monospace;&quot;&gt;&lt;font color=&quot;#ffffff&quot; style=&quot;font-size: 18px;&quot;&gt;Â°C&lt;/font&gt;&lt;/span&gt;" style="text;html=1;align=center;verticalAlign=middle;resizable=0;points=[];autosize=1;strokeColor=none;fillColor=none;fontSize=30;" vertex="1" parent="7">
                    <mxGeometry x="10" y="370" width="340" height="50" as="geometry"/>
                </mxCell>
                <mxCell id="15" value="Calculate" style="rounded=1;whiteSpace=wrap;html=1;labelBackgroundColor=none;fontSize=18;" vertex="1" parent="7">
                    <mxGeometry x="20" y="300" width="120" height="50" as="geometry"/>
                </mxCell>
                <mxCell id="10" value="" style="group" vertex="1" connectable="0" parent="7">
                    <mxGeometry x="-100" y="220" width="390" height="70" as="geometry"/>
                </mxCell>
                <mxCell id="12" value="&lt;font style=&quot;font-size: 30px;&quot;&gt;25.5&lt;/font&gt;" style="rounded=1;whiteSpace=wrap;html=1;fontSize=36;" vertex="1" parent="10">
                    <mxGeometry x="115.94594594594594" y="17.5" width="179.18918918918916" height="35" as="geometry"/>
                </mxCell>
                <mxCell id="17" value="" style="shape=image;verticalLabelPosition=bottom;labelBackgroundColor=default;verticalAlign=top;aspect=fixed;imageAspect=0;image=data:image/png,iVBORw0KGgoAAAANSUhEUgAAARIAAACcCAYAAACz+iQ/AAAAAXNSR0IArs4c6QAAAARnQU1BAACxjwv8YQUAAAAJcEhZcwAADsMAAA7DAcdvqGQAADlNSURBVHhe7Z0HmBRF04ALEFFJEhUDEkSiEgQlCAioBBMoyYDyGRCzqKD+KKACJowgIJ8B0c+AYBbFgKACSgYJkhEko2QUSf+8tdN7c3Ozd3u3e7d70O/zzN3s7ISe2enq6uqq6jyHHMTl66+/lrvvvltat24tzz33nLvVYrFYQsycOVOuvfZaadq0qQwfPtzdKpLX/a8sX75c/9euXVv/WywWi5eKFSvq/8WLF+t/QypBsmfPHv1fvnx5/W+xWCxeChUqJIULF5YNGza4W0KkEiS7du1y1ywWiyWYggULyv79+3UxpBIkFovFkhVSGVsfffRRee+99+S///2vnHfeee7W2MFAc3Dfv+6ntBQpVlwqV67sfkrhjz/+kPV/rHE/iZQuc5Kcdtpp7qcUvOf37vP333/L/LlzdB0qV6suRYoU0fUFCxbInp07dN1LpGvAjh07ZPHCBe6nYCpVqSrHH3+8riOxZ8+YruvHFS4i1atX13Wgj7lj61+6XuaUU+WUU07RdVTGNatW6jrUrltPjjrqKF33ltn/zDLzjP33YZ5LNPcH/ntJNL///rtMnTpVNm7cqN3y888/P/w7e+GZb968WfIfd5y7JTVHOVXh7LPPdj+FzrtmzRrd3/9devA7/frrr7Jv3z4tT1Bd4t3kN+Pc+/bs0XMfe+yx+l161/1l1iz9zzHlypULvzdefvrpJ1m5cqXkz59fzjzzzLj+VrzTF154odbNRYsWhd/NbBckPKy6V94gx154kbslLX+/+ops3/5Hqh9/27ZtUqxYWTn2plvcLaH99uzZGH7gwMtR5bw2cmzbK/Tz32PekkNbQ/23Z599Vu7/cY4cW+pE+XvzBulRoZSORvEjHuf8SMfedL/u54X9SsydKkOe6C+dO3d2t4bo3bu3DFywWs8XxN//7pW2O9bIRx99pJ95nv1mLwtd/+MPZdWMCSqkEBZlypwRvrfaC6fI5MmTdb1Zs2byy+l1df3vhfPlkwdulcsuu0wredGip4SP4Vls3bpahVZ0z3iQ2sB4dt774H4HNa4l9913n9x7773y/J/75dijC7hHBeO9l0TCS925281SctzX0rVZcymQ/yhZt227DPrsI2n7wgs6AmngN6/r/ObdGzZ2t6Rl+pTJcu34L+Wiiy7Sc5910slya6WQ8P16yo/y5Pz56VZK3tkWba+UK/76S1pUr6HlWbppk/SbNUNGfDg2VZ3iNzhqzEdSsmRJ2bJli+y/7hoZ4GyDaqVPCF/3Q+e6Q9zr8ju/WPccqdewkX732JJFKhgNCJn/tGqtx55XsaLs3bdfvlswX8YVPk7Gjh0rJ54Y/N5mhkiCJPQ3G6GV5AVvdOU17pa0fLvsNzl48KD7KcTS3xZppfEe963z0v/555+ppLDaddpcHN5vyaJZerPmBmtd1lFKnnSqbFnnaDbzv9dte/fuFTn/knTLdNW7r8u0adNSDYPn/fef8PmCOLh/nxwY/LD7SeTff/8N77+2Ri0ZOXKk9O3bV8snl18evv7qmRNTldlsX1H+l7ABXJ+P5xie2T///KPrVJJonjH3jSBhf+9z2bUm1MoVzJdHmnfoInmPyq+fI/GtIzDNtRNJmzZt5KkTT5bat94m4raHjDde7LTgg0ePld7Ou2EqJ9pBdady33lRy/C+qciTR74oUdL9ENq//AknhPZ3OKFwYdnFexMBBH3DMyrLxE5XS2lHOITLU6GidKx3jnRo31H2jBqpQgr+yZdPHnDOzb6bHEHyom4NVVTvdcFcd79TxktatpKODRrq5w+2bNL/gBDp79z3wof7ObXaeY/c69evUkVuds7foEwZmbl1a1hbjjc5aiOhokXLjNlzpEz503XdHHdi1bNk4cKFuh4vzLm9ZWP9gqtu0NYZDc0P33v3j4YyFc+QfmO+0HUVGNu36XoQmT23l1iO3blzp7uWQlbuNSd466235Ka8+aV2RecdQTAfOCCbnEZGcT5TEde++nqaYUqtYM6+UcP+zrIx4Nl46dWrl/yvVRspXaJE+Brh8jh8cPMt0qNlinAI41b4NLjXDcT3HcLnxsvbymcIEXC+02tzn846ZZp6xz1y0709Qt9nA9kuSPbuT/nRaOnWDXtCvu3ZLdVSYtUiHVbysm7FMily4knhl5j/xZzPxtclXlCmyWP/JxMeuj1UnuHP6nauR+vc9+nQZy+mxfbfx4Q7bpIz64a6JV44F8ccW7+pTP95qhxzzDHuNxlDFywzcB3uwV82nnFGrVH5qtX1HswxaxcvSLnXpx4Jb5dPR8sJTquZSAYOHKgtPUJjk9OlaDL6Xblt9za55YPR4Rb56Usuk1FjxrhHeHC0gS+cFrzpsJdTlqFD5C6nS3TyySe7O0UPXZp/xn8TEmoOs1csl6pj3tPyDP7ma70eS9+WbdTpM95MmDBB+lQ/M3ydt5yuVIc1K6TRhK+1LIDmk2fceC1rdpDjozbHbN8ih36dlmrZsnJZWK03TJjyc5ouRIHCRdSoFm/+dtT+PdMmaVnG39ZFJnzwllYgliVFT1S11c9fmzZIv/YXp76XVXNlwIAB7h6pQZg0uLyjvPz0E5I3b/Y+9jrb1qUul7PwjDMCmwL3wP7T/vuibN2wzv1G5IztG1LOt3VDtqnI0VJj6/aQwHAqzvuzZsoz774jY15/Q0pe3UlmLw/da2mnjAtnzNB1Pyv+3CLvz50tkzauDy/LHeGTng2kUIFg2xFG3rNPcgQQWoLT/Xhg8o8yyxFUlGdMqWJhDahS6dIyaXrI+B5PuD7nBjSRt/7ZI5M+/kTtbpSFMlG2Jo6gW7xihe4Xb5J2+HfKjhR12rSKCJYFq9fqenr4hVI00CeGxo0biyxbqutK0eNlq9O3zApHH320uxaC+3hz4z5Zv369uyV6slv4+PFqkjkFthuWjECwFzQGd6eSbNi1U06kS+HQtF49NTJq5XHYvCTyKJTaqrIJRkyg7lk1VWOCk5136Z907CzxAj8PQ4FijiBDwDlg59m+ZYuux5scFyR7Nq5Tu4N38at72q+tmDK0uWLWL2FhMivPcemqZ6u379Rzfvrpp/Lr5Enu1hDGcBnE//73Pz2uU9u2UrXjte5Wh+WLI45OrJw7U6/jvReG7tKjwsVtdb9qRaLrskwY97nuT/miZZdT0bxlYskOlTreYEjHgBoLdE16zZoul372sVz65efStG0H95u0MJLhfUb8llkRLkWLFpUf0ILclv/u6mfpaBLnOsZoMY5WstZjFzsUB+fPY9yy0s38ye3yYw+ptmKVDBs2TD8raETOkpGdJxZyVJCg3h/T82l5bOOBVEvLbj1TdR+ojBhWDSt6d3fXHMqWV1UuCM5fq8cjes4HV+6UaU07SfHSJ+p2L94RBz2mSzcZtDWv9F6xXdZ0ukNOrhxSb7ER3N2olq574RjOy/l7zF+vx5nlnnvucfcKpkKdc+Xtt992P4X457i0Pg9co9xZdeTrqk31fgb/W0RHWvz34ofv811/T6oysbS85taoWvtEwvD/xIkTpV27du6WzEPX5IfFv8lnM6brEtjVdCpVpzpny7k/z5Byn3wRXmb2fFDtDZmFYdX9Dc7V0RfOfXGdOtLbqePNq9eQn6ZPkz77/pZ7d2+XAY6ifPXll7tHRaagq0FES/PmzWX4FLcL41x/QLsrpcQnn8vZ57eQdYWK6LW7b14vC86sJmedlVKv4kmOayR0T6io3kXKl02lLeDMg2EVsEWAqUAnOsenscR78J8/GhAKVHAWI3hYNr3QVx57epC7l8juA6l/YM5vjmOh4u/evdv9NgW0qfXLl6hggrXnt5VdTh89Grz3QtmiwV8uFqlRLTTsnY3kcV7kWBZadvj4449jEibRgP2kfuXKKUuVKnJO5SpZHtZ+4YUXpNOQF9xPoWHfH67uIr0O5lN7yY033qg2k4yc2kwXOzPQlX/ik0+k7zuO1kq33hEmHes3kJmNm0hX53z4qTz//PMarRsPX5Igsl2Q+LsTppJ6F/k3tTo5d+5cHS6FDUt/k0bVKmlFhBMrVZGlSz02DB9pzh0lZn/ThYI/CxVPVX78LLx4r8OC0Iv0IuzdvUsFE1Ru0ER2r02/C2Twnj9avMeEj3WecTL4fkSLESZBXQ2/z1GWcSpceHGus/vfrAtaur9Pzpwp1V4ZGhopcQQj50Q7mdbyYunX4sJs7V7itHjiPXdKh2Evh2wyXN+BYfBBRUtIjeOOSxNoF09yVCOhki578kHJ91LvVEuXiqXCkpIXB4OqqdAb1q2RdjfcohURaJVxAQ7CnL/IawN1Wd3jaq3cXuHgh+8YpaEc2wY9qEPBbGOhm/Tys8+4e6ZoJHzHeTm/9z6Of+s56dixo+4TRJ5Vy9UBDK2p5uB3QxXcB05swDUQntv6dtd74fxmNCk9+D7oGbctfUy2tUbZBcLk3XffdT9FjzHasgTaPBginTtbh0cvmzYlvAzbu0dq1qzp7pQ5uM65jtCYMG+uvFWymHQd+XrYyArGjySwPA6xGmE576233ir3j/tcbvljlQz+enzoC6ebZPxIOnVP8RKPNznftXE0LySzdxk1apT7bUiDwaBqqLZtozRp1FBWuN0C+HhZ+iM3uKiz3HHHHe6WDFi9Uj5xVMOZE7+T+44/GO6CILRGf/eDrgdBghfvfXz//ff6Y0ai+/33ypxPR7ufMgbh+cQTT+i9UD7Z7hk9Khp5+DXoGRu3/dwE3YUuXbq4n6KDRqaN0/r2r99QepQ/Xd25g9j2519qbP10/Pjwwu+XFbd/Ymtq5s8vXctXlH61ztY4l0cnTpDGk39SfxXj3/H0pe1kTJBfS4zgnNfOvf6gNpdorFHtpwZKnv79wo5p+JFU/XmGurZnBzkiSIqWDI1xRwNBY8eeXsX95LTQC2fJ/0a+oZUdtEUueUJUjjWRpH8Qxn7Q8vJ2Yf8JrrVkX+ruTGbZ6wkMrH52Pbk+7/ZATSQSpjsSZN/IzP3Fyp9RDIFfd911csstt2R54XjD0KFDU8XKRAsN0ROdr5UBV7SX4Td3k32bIjc6mbUZRXIrwD0AZ7ORXW+Q4bfeJvvX/KECafGs6fJ0Xrfr5FDP2TY9jp7Ze3eF7HG/rV4trzkaB9d/uUMnjYEhrodu9rXjPgsJMkczaV6rVtw9ww05rpFkxG9Ll6VyjS/7/Dvy6yU3S/P7+oQrIIIm3h6uXrZ7YhjSY/+uHTraRN/TLJFGRgoULKQ/7O29HpKpn4xO00XJipEtPbxlYskuj0Yvb775phr0sroMHjxYz4Mmkp5mhzPcbvOcnQpSs8xJaleDEe+9KxU8sS6lzohscN/gtNY8F+9zSg8C5IL2L1WqVGho1b3mSX/vDQ8IbFid4tTH8G94ODgCGgvl8XyuUKKkzPrlF13/9MsvpWyx4roOu04JDUhUKVs2NLRMN8Z5Nhh3gfIdj7+Nay+hjEV5NtlA0gmS2bNnp3KNp8KZxYCgMQbX9ELnM0NmHb7o9vRfukmKXne7lOneM7RcdbO2rJEgwLBe/QZy3LcfZUorySyLKtVJKZO7EEmd7MO/COVBgwZFpYmsq1gelUxbe1zlv3joYWnUqJFcvmVrKGjOYfbvqyJGsRMd+06X66Vvo8byRIsLZXDL1nJVmTIR7W/s/8Ett6ba/2Znf3xPyjoV+TO0WNfA+njzFnJnm4t1hObNyo52jUbgfEckMA5zGVGsWtVwl+TimjXlj+Ej9N5k9BgdYWI735evGRrKPaN69ZAfCdd3rvVKlepStWpVuaV1GxnS7ILQc3K+w9elcoUKeky8STpBMn/+fK2kCA4Mmho3wvLu6+4eooJmwcz4uxpHixECF3S/L9WC1kQeiUgYQ+rjve6TVfNmpdFKsop3ZImyEQXsL5uc31S2b9/u7pWcENVNOoNoIIp68ITvQsOdDq907CSTL2wtXerUDVUch3vfGinXXBMQEe1URIZnX+zYObzQFbr/0nby11+hHDGpiLB/b6cLxTNFizjzmqvl599+0/KgFXx93X9kpnM+rfjglOn28ePC0b/pcfs990gfEzPkgF8I98Z/ysJ2vn/0vlAaDIy8I/9xujnufVPWRZ2ukS/ad9KyIFwIGzjUpuXhEf2bEbSYi/ccCFewOZO+0diX3556WAaddZpWPmDUY+68+boOGeXPMJgWWW0L6RgrM7Lp+DWk9CA+yPw3Ng1e7hXvvqbrQWRFwJgyR3Osf0jeCLhIcE6GwpMJKuSkyhVl9NQpoQrndiu0VXboPnyY9Pjkk7QjVW6rrXCMWQJQx7Ao93/2scfk+sW/heJ8fOVBe2jWv5/8hKDx45bXC4KhxJ23yYCxY1KubXA+s73qQ71SxQVhjK9ujKvmnJTBKQvD0R2n/iTvjfhvaHs2EGw9iiPFihSWDa8Olw2L5unn8/NE9gFAuq9esEBWuxG44giS5q895zyLUDHvP6+NrGgUysVQZ0vIoYvMXyTaIVcJlPD4ZxA5O+e1oU4n1lF1N2+RNufX0e2aQOmTt+Vb/eQw8fNwlC2ti7e8JXaltFA4TIXPF4G2HolfunTplP2XL5Z7e92p27l+jwvPk+efekQF2hl7duh1gWM+Nvc/Z54Uf/tlXS1A39p5WcJldp5NoUIhm0KJEiVSlTmQiZPCDl9lHJXc+1y6dmyl273oc3j37fA56xwdMhgmEzh4vfjii9J04JPS/vRKGkuCHeD9bRukz6g3UrX+xL4sdN6v3h9GHjWZN2+OPNDrXl2Pdv+br0pxwV8wbaqmE3hx5OvShi6Nw9z162RK8eNluCNEvBnt+C36DBshJU4oLX9u3CSVeoauayCPyntOd6pJ337SwWkkzL2Rg+S2R/ulSbqFNjfe0YavveEGqffDZrUbwThHuB1qcp5T1nnhepQd5EiqRYw+pjWmEnkzofnBmGWSUJNawKuKRTqPd7v3GLYZgxjQOpmHGekYiHQd//mCoFIboeDf35uQCe2I2BLwXsO7nbJ6W9Ron00Q3nP5y+V9Ll685/TeV7LBM5u3aJFs/OMPraxBaTvB+/yC8D9vbDbe0I0gglId8tyWLVummh9lCRpSjvY3YL+ZjhDg3pgKgvMF7eeFEBOMvTSOp59+eqp7ihXKk5BUixaL5fAhkiBJOmOrxWLJfVhBYrFYYsYKEovFEjNWkFgslpixgsRiscSMFSQWiyVmrCCxWCwxYwWJxWKJGStILBZLzFhBYrFYYsYKEoslF4GLOqkdyZvC/2TBChKLJZdAHNy5554r7du31+RP/Cd5EsmVEk2+fg7uukyaNEkTC5HanqxPyQIRmCQvpkzjx4/XMPghQ4botARMi/naa6/pPKdEqJYsWVKeffZZTb03Y8YMzadJ3tMlS5bobPtMgMQ5Vq9eLTVq1NBISVIEcnyFChXk888/lx9//FHq1aunSXWJ3GTSb9aZ0YyoWwKWCGzMnzeP7D9wUJ/Zb7/9pteZM2eOTsnJZ/Of7ZSDqF6uZcoJvARfffWVVKtWTfd55ZVXNGUA1+Eea9euLV9++aVmjuP+p0+frvdBdnXKTBkmfD9Rvv32Wz0vz4O0hTwzPpOJvUqVKnpe0lNyz8zCxjMcN26cfgZeUp4Lc6BwvzxTQt15xqz/8ssvUrduXZ3xj+sTrfzyyy9rmciFccYZZ2g5SUfI96RDAJ4bn5PpfcqN8E4zNw2/KXMAEWvL71S4cGH9jck/27BhKMVGdsL7wG/K+0VydZNZMFdoJIRjk8+TwpOFG9lHiDTz9JJngYpz5plnhvNtsH7bbbdp2DWTjpPDcubMmVqRnnnmGX3JK5YLhXYTbs0PwTHTpk2T999/X4UQFZzzmln9yCNqwvtvuOEGvf7VXa7Tfb/77jv58MMP5YcfftD/CBqEA9tvv/12nfALQXD11VfrtZs1a6bnIYz88ssv1/B2BBN5SvmeCkumtfvvv1/LzT0zAx3bRowYoYKJGf0o83GFi2jSZMrTvXt3fdlQf7t27Rq+H4QOqSkRJtN/nqrPhozpr7+eknWOyG/OwZSXppwImbVr1+pzQOByHtYpK9spH8/ngQce0Fwyb7zxht4z92u49957tcyWrMNv9uqrr2o6ACZgIzEWswvwn89s53velUSRa7o2tLSELCONoVixYvry8vKjPZDExuRdMAlt+E/LjoAxE3rny5dPVUJypxpo9dkXgUUq/yuuuELP7Z2M2eQLgW+++UZ/RCoarQL7UqGorPw3OSq4NnkpzCTkaChMr/DUU0/pZwQTIdnkeUUoUDkRLGgQCAu0FjQB7pGcnQhCNBw0I/JMUGbyU6BdIDgQTFyT/dmX1osWa8WKFdKqVSu9t607dkqdOnVUm/HeH8dcddVVqipv2rRJ1w08X+6X7QgYtDlv8m2er2kdub6B8qCpmL48SYgsmWfw0GFSvHhxfZ5ok3Rr+O35/9xzz2kDy/eZmR863uQ6GwkPjYfHi04rjUBB1TICxg8VhMpJK8zLTuVhG3O9mO9pxY3wiQYqOCoerQEtON0BQBB5p+wkiQ7ak5nrlwqPikp5DWSPRwByfboAZhY5klqjOtLdIHFP+fLldb4UMAKKe+YanIP7uOuuuzTnaZ8+fVSLMZWa/wgmAyn62B/BZUBQ8ix5Lqx7s9pTXrQkBDDCgoRKCLiM5pxBUHJfnI97yGi6SktaEMJGENPA+Z8heYNMysVIiatzglwjSEh9B7zISGZaeQQElYEX2pOfKRVU7lGjRmnXhMpERUczMIKD73v06BEWLH4QPkGYviGChIpGRedc3lYeGjRoIFOmTNF1hCAVHY3GwH3RvaKloVXxZrNHAGC34bhy5crJF198odoE+yCUuGf24RzYaV566SXtVqEZ0aWgO2IErPc+EFhoJ9hbDFxj1apV+lxY99K2bVvt1mBTAe6VYxFGQZjt3i4OWoxNlpV53nnnHf3teHfpcgYR6XfISXKFIOFBUvnQQNAGyIuJPQJ4wKjZSG1sDRlx4MABtat4JyJHAAAVmX4mRmcjuLCxUCEBWwvrdGkoC5XXtPoIFKCSGUiqbNL+8WPTNUNg0S0BugTYTjAAm24D56X7kjf/0apt0KXhO7pLPINKlSqp1oIw5J4RpGgPp556qtpG+vfvr/YZjJs8G4QN1+Y+MASzjjBFIHnxCg/KicHZC9flOSGEWEeQoWUA5eX3MBoS98TzZaHbx3PguZmW1RIdvM/8lsDv6U32bOB3M+8yXeJEkStGbRAkGE6p5AgRjJW0kA899JDO1UorTJ+fuTyojMADbtmypb7YbEMdx7aA+s55+J6+P5WNyoVw4BrYE6gg9D85llaVKQr4EakIXOv//u//1IhJ14NroiUxLMf5qWQ8O2wxCBVGfegW8CNf0rqVvPPuezLgsUfl5FNOVZWfCsl5MViivaDdDBw4MCwwmjRpovdTv359rahoDBxDpabCcj/YIfiergTnGT16tM5BjBDiHrCfYFzlHtjO/XAeNLtLLrlEz48wwlaEYKQc9LfR4hBgCF+eM/vwLM855xwVhtxvrVq19FwYpwcMGKC2KO6HGd0oJ90tng0aJMbfhjkwsnC4gPEaYz7P/cEHH9T30w9dXxonY2A3o3DZRaRRG5uz1WJJQhAMTZs2VcGMdky30uRH9YIQR9DQKKAxZ3eCbsplc7ZaLLkEBIex6bVr1y5QiGBcRQtln5tuuimhWf6tILFYkhC6NXTp6VZ6h+K90HMw+zCilkisILFYkgxseBiwAXuld/4iA8ZrbE6ArS9o7pycxAoSiyXJQNNgBBGjOAbUIEaOHBne5+abb3a3Jg4rSCyWJAJNw/j3MDoWpGkwLGwC9RgNTAZHPytILJYkAo9kXAcwtBpNA6MqozKGzz77LLzPf/7zH3drYrGCxGJJEvBfwpMV72jipHDBYBteyibQk+FXgi3ZB2HSpk0b3Z5orCCxWJIEo40YZy/AmxlnPpwgAS9ovmfIF20kaFg4EVhBYrEkCXiM4nyGxzNOX8AwMN7Ll156qX4mJoshX0IV8C9JFqwgsViSAONchpcqYQs4lzEMTMjKxRdfrEPAhB4Q/AitW7cOp81IBqwgsViiAFsFFZnKbYIV44nXuYzcL2YbXRczBEymOvbByHrjjTfqtmTBCpLDHOKnCPZjSWS+itwO0dAExBGAGSmcPyvwm2BMJb8MEF+DpsEwMNnm0DwYAmbUhlSWQDmCIoETiRUkCYQWDh8ALPL+he2xJvXFKOcJ7s72yNDDmebNm2s0M5Ca05uGIitwPDYOosxJEkVwHs5lRtPA8ApXdeyg/4k2J8ocbcRoLMmEFSQJBGs8EZvkIPEvbDd5UrIKSZkNJG8KcrW2RAddjEceecT9JJpVL6ughZAsijwzdFUQIBhZ0T7QNGgAEBykoSAlKF0pUkOwD8PCCLVk47ATJIQ3Y9luf8N/NMSahMi9BwzQ1j/Z8AoKrPS8XGYhgxku0LFAUmgDeWEtseEdJSGRttdJLFp4D3E0o/uCdsHvTPIicoqQQhRoAGhkvEPA7IshlsTjyTLk6yXX5CPBLZgsXGT2MsmV/dDXXPPOe3JfsxZS381CBrN/XyVj5s6R6SeUUmeeSMfnNLw8JF8ChEo8w8C95+aZYSQ00GUaO3asnHXWWZr60YCzE4l0MgMtKlngkvHlzg4QJnRtYOjQoZr5PzOQbIpuDFoHMwGYvLc0gCSDAhpCtBUSjfFcvTlHyHSXSM0yV+cjwfDUokULKVO6lN6EX7vgR8Gm0HH9Zvng1tulvpve0FC7QkUZcEV7ebtydbnm7HpJY3Q0U12ASe0YL3gZDeSqMCBQ8E1gfh1Uau9+ZDir+/gL0nj4e1EvNe54ULPVJQpe7FjI7PGdOnVy10Qef/xxdy06aKTRLHAmI6rXCBESgvNek/GPBSHCrAKmkiJ8SFdJJj8T8Zts5ApBQqRj3759tb+Ih5/JY2lodlk7+bJhk5AA4cU4cMD9xoXPzvbSTv9yUrfuckvjxlHld80pyENLJdZuWO/eMRvyaLlMqwnePjUvItnIgRSIJIo27N+1Q5rfdJc0uvKaqJeqbTtrOsechAqJZsBIFAKYioY2HW1XA42Mbp85nuA4KnM07wRdEQN5czPzW5GsCA0OTFcTLRq3eLo6OKKxoLFgI+NdAAyyCCCOTeSUE+mRKwQJqrPJYM4EVFQAA3OlPFakqJRm5jq/AMmXL7QY3O+/v+MeadH2Sl1PJOSHBaazYHSFfjf5Wono9GoKmQVjrYHcqiYBNRCbwctL14f8rrykXv7atEEO7t8X1ZLTUGnJZUuiH6+gJEs/z49RFYRMJIzmyuwDeJEaiLZlsi88SDMaKaPCm+Td4G/UIoHB1ET1YjbgPGjWDOkiPPwQS4OBlX3oyjAsDDioZYcfS6zkCkHSuXNnTT5MBSC+wNhvUEvHDh0mFzvfqSZicFTCTU7rMvrnqfIzLYZXmDggdK5w1PpkM8B6s4AzD09Wu2BY/A3GtdqATwJaiMksn+iEONGCEOH5GH+LSCBkvELCgBAhaz8tfXogZNITRnDttde6a6Gh4GiguwLYOhCGQFkY0o0Egs2Ul2M4FlsamfmTjVwzaoNRC6s2fUvDzHnzpEPJ0qkFhbP+xcyZctvubXL8vXfLZzWqyN0fOBXLawx0hM7NTc+X1z0VLhHQ0phRGjJiYbxivmID6nZmobXyvtxeVdzAdRHGsRrtjFZC/z27yYzxn26Lv5HITCpChFF6XRay7BvQ/qKxs9A1QXiDmcIkmi5h0D6x2oWyg1wjSIJY4rws9cr6WlSn+3L/0kUy5vU31No9wOlnFrq6s8xe7rRkHoFT2qlEKzwTOCUCuhVMjs5iuh+o3kYziba182JiMQzebk1WoKuzqNvl8kef2wKXfUP6ZfsIHxqGmc3QgF2JURMMvSbAzYuZFhXQ7LyTkhlGjRqlQ60Icj/YrCLBhO9eZs9ImWgsEkzdgTaBTcakUcSgikt8JAjMYx9glMQY5I0gSiZytSBh1KGCzzZCl+YKj+oJl7VuLT955qpVHKFycGtiDa70x1GjY/Vg9eK36sciSPIelV/27tyhlXLxrOmBC90khF92gl3MD4ZOtFS6vdh7vD4zYOZeATNlqhe6B4yaoOEiyP1+NhwfyfiKUxiCzDBj9hx3LTJof0xiBl5bCecK0ujYRoPCPmggZrZGtsWqSWYHuVqQZFrFy5MnpJWwsJ5gmBUPNZrRGi+xqK6mtQPj0p0ZipdOG1Ga06Myfvy2Iibu8vutmHwdXnDqAr+gZl+/gZNhVz/euZG94O/DpGSGaH1viOLFzkGUrykTPlvGrwThwcI62ximB9zl2caxaNnJSO7WSJx+ZzQcX7CgfDjlR7WdYIBl+dRZEo3pEtC6mheL1tUYFP2tbDR4W+8LLrjAXcvd+Ls1dBP8YEj1YwQgz9eL16htKFCggLuWAnaNSHhHbqIdAr7++utVuCHEaETwj8LYTfcK5zS6MYxI9uzZU0cp0Tyw9QwePFiPSbYcJF5ytSCJFtT7IfPnS8l+D8tpAx/X5YQBj8kr7yXOkQq8Q6+MFuDXYLxRgekuM4tXIzGqdFYxxtRk65PTMvsJGsmg2xBEkIYVZEMJElgGJnc3IEiiGZJFMPTp00f9XRjexZ8HbQshQTdr+PDhOqBAdw2tx3TZjMaCJsWwcTJyRAgSIBjq3Dp1Ui2J/lFojZi7NQiMiJm1Pfhf5lhjdaBA4SLyypOPyz3duwUudMuy27kPjcIsa9asCZwwKsg4arQUUgCYheftz3NK+f3aH1pLeqEUZo5poFxBwi0IBAaCAsGAAKExQcvAJoPgYGGdLgzdLfZh31atWoU9YZORXD33L8F4d2/YoiMwBoytL55YUkdrYoUfmBbeDNtFAms8DkO0KFkBizyZwelr4y/AUGVW/Dto6bx2kczGgjzS8z6Z0rSz+yk6Fk6eKH3KFsp0zEmsUPkRtmhLxE95nfAA42m0vweV1q+RZPTsqCdegYZGRKWPFhwOX3rppbCwRxCZERzytqKxYC9hQAHNNKefbySw3wXF2lhBkg5U6owcoAz4azDjfyKhz12uXDn3U2h4MzOtWGYFCaM6axcvkDuP3hHxRSe2B+NiRtANyYwG5r9XP2gJ0WicVGic/7wgjBlG9xt0vfgFCbaPzI6mcA8jRoyI6B1L44RAjHUIP55YQZJAMKT6W8x4YULPwXh/GmixUaOjJSsayfrlS+QW2ZLG1R78GlJG0CqnV3m9pCdIor1vDJlByZ5wQ88oA1k8BImBrguCb/PmzardnnzyyWqDSeSk4JGIJEiOGBtJIkHt5eVcuXJl3BcvJiDMEG2/PSPQPCIt2FAiETSSkh7RChFIb0SFmKWMwJ4U5MjG0HJOpzGkS4TWQeNNN4vrJ6MQSY8jRiMJsqpn9GOhSdBCRAOGuUQ/s+yykaB17N0d7EuyfuUyeaLGKYEaCfDcoxFoeG1mpvIY7Yth2KDuZ0ZaCUOxdP28ZKZ7ikHUa6DNrI0kt3JEd22oYI2cCta4XMqQ3W7nBd/f4Fz1agyCCpCRkdWP51EmBH+ZiYgl/UK0BAkShMg5k96XFu06BA6bYuxk6DqRlSioi+JP5uTF3y0xRGtXAeqKNx8uDU5u0yKywhHdtfl93Tq5p2FjGdn1hvBCAqT9a/5w90gLLwXdEYLoolm8/huZhSE/WsiqVatqK5fVqF//ixzkep0VECIYbdFu/AvbE90S0xXwaxdEzdKA+KECBAkRhoUz4w5gUkAAQutIECLpcWTZSNAYHImqSxTaAy8oIwnRLFm1rNOy4YRGRUAYoTI3btxYt2cFr8elienIKthAINEu8mY6DbOgUfgh876foNEitCc/JMbOrOu5tzuV0zaVZCRXC5JTiheXtdu3pYnq/Wl66sC1lUuWSIUSKUFWyoEDkqdE7A5bsYDm4VWPGzZs6K6FuiVZ0UxISWkI8tY8XAky1PoNsmQc8+cjIfjOO/IVDXQhlzjvlKFixYru2pFLrhYkDJOt2+ZzjXaESq2lK8KtFka5/j17hZIf+aKEj0/HBTonwIfAgDYyefJk7U4ZvN9HCwmgvAQZmSNBLEduwATjedm7d6+7loJ3FIvuI9nn/GRFWGNY9cb/ePOTHKnkakHSpEkT+eDXuei+7hYHR1i82KGTbB48VJo524de0V7md/VNb+gIm4lLl2Qq2U12sNxNbcBogekaoSYbXxAymGUW8o96MZnJs0Ii0ikG4c8XEqRBkHLTj4k1wlbijWEyECyXlS7pvHnz3LUQZOM/0snVggQHoENNzpNNtA6e7g3C5M4LL5Lv+z4uL3YMHgLsN2tGmpiLRBHJKBqtV60Xv5odiyBJFvz2C54L29AmGLHBnuSfsIqRBWME7tWrl/73QpeGGe7o7gQtpPWMFEP0qy8hVrIG0uUkud7YStKdZkNecD95oBvDgmHVi9OXHvDhWHny1dAEzYnEBH7R32ZYzRDLCBDC1etoFYudxBhbEw0TSvnhvjBKM+zrtTMZiLI1BI3e0DWhqxNpQTBFcnp79dVX3bXgPChHIrlekNAaPD9+vFz6qDudolcz8eMIjsFfj5e/2l6aKvdrojAtLS812hF2ncyOHgThja9hFMgrpDJDsnRtEPhE7kYLlTu7/KAQSl5Bb7K7H+nkekECVL4n58+Xiv37hbLGA9oGQoX/zoJx9dJ+D8tR114lzz72WGifBIMfhhmupYXFvyEeIy1+1+9ocooGkSwaCSAYIqVc8IIQSS/faqz4U1nGQ/AfDhwWggQwUs7fs0cm160ll/84UbqOfF16fzRW7h79nlw85n3ps+9vGbJqlVbeZALDXbzn5UVL8wqTjz/73F2LDhNHk2xQaclHEvS8MFijtQQJEQLg+J5nEu1Sr1499+jUkPbQYLs1KeRqF/n08PaLCR5LRs9DU0bj1o6bNUZAUu4Z9TmrbvfECRnnK86J+3dGNiF1HR/wnJQtmjLXyu61v8ukzz9JOqcrImZZyOHB75vVyNvMwPW8gYjRRAkfbkRykedFDdOvX79DVapUOeRIdneLJTtxujVIiUNOa+luCWG2+36eTGPOwWJ/09gZNWpU+Hn6f7MjhX379um9846ybjhsuja5EePIRK4Sk0CYQDMz7Btraj2ifw1ZmWzLkhpGcwxPP5HWue1IxgqSBNKtWzd3LZQjlMmw69at625J/X1W6Nq1q7sWmmyLZECWrIFnrOluYm9hQntLClaQJBDsUF4fCDMJErA9VjsVdiHycpi8Hf5pHSzRg/cqgZUsPFNLag5bY2tuAg9NnjlDi4wWoInY529JRo7ofCTJDkLjzTff1B+GFs8KEUtuwwoSi8USM1aQWCyWmLGCxGKxxIwVJBaLJWasILFYLDFjBYnFYokZK0gsFkvMHNaCBOc6HGf8MH0EsS0kRs5K8l+LxZKaw1aQEPJNoiAjKAirN5nCmJIAQULyX9L1ZTWDmMViCXHYChIzZy+5Psj7QW4Okyls0KBBMnv2bJ3WgAAs3Hyn/zw11dQNCB4iZtmGZkPQFkLJCB228z37GSIlC7ZYDncOW0Hin5kf1m/arP8RHEwkRbeHhDjkNR08dFg4/ybC4YEHHpBzzz1XQ/GZIJypIzp27Bie9oBpGkneTMYstB8ES7FixSLON2uxHM4ctoLEZMxCM2FCI1i5cqX+J5y+XLlyUrx4cdm0aZP89ddfmnzZ2FPGjh2r6QrffvttadKooX7fvHlzzTLGpFwmATBaDdnHmEmfXKtss7OuWY5EDmtjK1GKGzdulM2bN2t+zdGjR+t2wulLlCihGgWh+wTJ0c0pWLCgfk/gXO3atWX48OGad2Lp0qVhDadiudPCEyTdeOONOlmTmVCafXIi5Z/Fkmwc1oLk/vvvV+Hx4YcfSs+ePVVwMPERozbk6qhWrZruV6lSJZ21j8xkpFKgO8O8JthFsIPQxTnttNNU+/hh8hSdAe+6666Tp59+Wu0mr732ms5wh5bDMRbLkcZhn4+Eio7QQHgA3RJvMmjsG2ZGNro2u3fv1mkcWWd0h3UzrSPHkhaxVatWqnlwbrpO9evX13NgbM2bN2/4fBbL4UakfCQ2sZHFYokam9jIYrFkG1aQWCyWmLGCxGKxxIwVJBaLJWasIIkz6mY/71ddvC73FsvhjBUk8WTDRjl24NMib4zS5dj/66Pb4gnu/GZWvpwGHxn8Z0yYQBCM/Jk5jb0wzJ4nTx73k+VwwwqSeDL+a5Fdu0TatAot8MHY0P84gVv+jq1/uZ9yDoRXy5YtNQYJXxoEWhC4D+zdu9f9lAK+NR5PA8thhhUk8WTHztD/M2vI/mZNCfhxalDKzP5eaKGDlkh0795dmjVrpvFCefMfrftedNFFOs2nCRRkn3bt2qnWsGDBAq3sbKtataqO+6NRsM42/AFY2BdnPeOR27t3b/3Mdi+EGTD7H7Pvv/DCC1K+fHndzrnY30RBE20NlI+y8B3l4Fp8Bv6jtVBuNBgw5TCfLbkLK0iyCXXU6dtb5Pq0E4FTqfCu9S8IiiCodAQSjhs3TlavXq0xPbjwEwLA9oceekgr7iuvvCIfffSR7v/PP/84ypGjHTn88ssvGsGMRoETESEBEyZM0PNRefme7zgHIQVU8Pbt20e08RAugMMiwqNMmTK6P2kaDPny5dNz16pVS8/NvYGZO5f/PAMgoJLjd+7cqf+JcbLkPqwgSQAIGdR8/0JFCoJKR8XFrR/3fPj3339VgJC8af78+Rp0iMchMO2noWbNmqlc9tFiEECkRaASDxkyJHwcUcxoGieddJIGKpowgkgQHoDw4pxAOREiQHnRYDi3CXg02or5b6CMhBsg1EweGUvuwgqS7ITRmwjGVgyP/oWKFAmTNIkuCqAtjBo1Sr7//ntt4anAxAmZ7yJBF4bKeuutt6rG8vjjj+s5EEQIDrLGrVu3Tis2ixfSKAB2ELogCISnnnpKz8l3CEg0C/6ThgHhyITbaDt+AWFcq4F1jud6BFWS5sGSu7CCJLtAgDB68/Jwd0Nq0Ab8CxU6CFIeYODEtoDwoNtyVccOmt2NqGMqM10XUiJQEanoaAFUXjQXQ5cuXVR7QABgPCUHCxoN20jaRNeG77CTfPzxx3L66ae7R4oGJtKVoQwc07VrV702tg2Ov+yyy3Q/kkP16tVLu050odBKKCfnpVsGaFV04+666y79TFnQhrgu3SByvlhyFzZoL558853IuK9EKoQMkbJipUiD+iIdrwx9jgEqOVoDFa1AgQKqPWALQQB5o5MRII899phcccUVUqNGDd3uzZFCpeUcaAyApkPOFhIyoRlwHbSDE044IU1uFboudImwi5juktnfHG/2MRHUaEnmOzQN7CtAObgGQpGymHspW7Zshl0qS+Lg97XRvznBm2+JzAklPpJaZwUaW7MLukckcBo4cKBqI7ZCWuJNJEFiuzbxBsHx/DOhJQeFCCA80ESsELHkNFaQHEYgPDDYWiFiyWmsILFYLDFjBYnFYokZK0gsFkvMWEESR9Si/dWcVMvzs5e738YHrpEocHQzS6RyxKN80ZwDL2CGkC3JgRUkcebg/n26mPV4c8cdd6TxOM0JuCZOZfh58B+HMz94uHbo0MH9lHU4R0b3+Oeff6pnLn4sNtAv8VhBkg3kPSq/fNOqlnx3ST3pUTs+M+/hOIZDF85gZlSGsXxvq8w+fMa5C62B/2abcZsnKti42wP7sM1AxfTvY+jRo4dGAeN6hDcrmgP7cg5AwOCoRrnM8aYM7OctgzmG70wZuDYULhyKmPZrHN5y4VXLvETEBOH7FFReS85hBUk2YdT/SGo6L/+wYcNSLZESBnEu5hXu06ePBtnhvUqLjc8IUcBM4gXsM2rUKBU2Cxcu1Ehg3NQHDBigOUJwZ2cyrwYNGmhlRzA1btxYt5m0AVWqVNH5jDmXqdgGtADuxwgEXOE5lnNQyQsclU+vj6s7xwNBfVT4hx9+WN3gr7/++vAxCJCvvvpKy4ubPxORAQIJ71xc+nH5BwQXxxGQiNBgnWlSp02bprFG/LckDuvZGkeoZC2/mu1+CmG0Ez88Z1zevRAXc/fdd7ufUqDSU6mIxSH/x5133qkViZgVXM75jjgYYmDYh8p3zTXXhCsXAXqA5ytu6Py+xLPs27dPuwccR8WnPPxftWqV/vdGDSO4qPzE3+D2jhs8mhGVmsA8qFu7lk7GjjAhT8o777wjI0eOVHf5zp07q2DCzwX7xhtvvKEu8ggNtIr77rtPy4czHfdIHA5CEPd6tKBSpUrpftw329euXav3QBwPKQwixSlZ4gvvuPVszUEuObm4Lm1OCE5sRN4N1HPvkp7wNnEvBPABlZhJzqm0CA00Dlp8810kaPmZFJ0gP8Cu8cwzz2hwHdcYP368PPLIIxqP4+8u0LWhMhMdzDUQFg8++KBqPoUKFXL3CnH00Ue7a6nhnJSBydtNGSJx8OBBdy00XzPlpOzeoD7vPpbEYQVJNoAWgm3ELEF8/vnn0r9//zRLEEh9NAK6FMxjDFRUone7deumWc+o+Kj6MH36dP0fBHMgE6GLZoHgIfkQ2ypUqKDnp6IinNByyHPiBW3BC9HGTLRORLBJomRAuyIgzwvXY/GWwX9O8CjJKkAMHEf3By3FG9VM6xipC2nJGawgSRCo8rTk/iUIomMRGAiO1q1b6za0g/fff1+7N3QP0CbQKqjUBQsW1H3QEoytAtA2WrRoofYYBA9Z0IjcxWYCaBmkK0DT4JxeDQn7B7YML4MGDdJ0AD///LNqCaSAZKJ1QEhgy2Hids4FnJ+ujrcMfGe+p5sCp556ajgZkkm6RJ4UjsN+w30VL15c9+G+ScbEdksCwUZicF7EQ1WqVDn0448/ulssmWHfvn2Hmn82TZdE4GgS+t+pfIccbULXLZZ4wjvuCPxDTkOh6warkcQRuiDGNpIIGL3AYIlGQZJmiyWnsIIkzqRnF8luGOZ1Ggfp27evu8ViyRmsILFYLDFjBYnFYokZK0gsFkvMWEFisVhixgoSiyVJIPaI8AHilnKbg50VJBZLEoAAWbZsmTr24XCHg51fmOB5bAIpCTXgs4muNoGU6cE+/rCHeGEFicWSYKjgBCESmDhv3jyZO3euevniMWwgUpv4JL5HmBB+QHwVgZlmHaFiFs7JQvgA+xMkyvGEPXiFCevsj9AyaRvYxvX4H63gsYLEYkkwRGGXKV1KZs+eHZ61kLAI4p5g+s9TNZwAgUHIA2EMCA4iuQkT4D8LQmXNqpX63Q8TZ+h/0kkgSAgpMBOr/fDDD3pe4BjOzaTvhECM//JHTe0Ai1esSLVvelhBYrEkGGKN1m/arDFPpIMgIluTWDnCBbbu2KlCBK3BRFmbgEjz30C8E4IBgnK0IHhYjCZijmcbAZQlS4dinxA6x7sxW9HYa1LlIyEhzYgRIzR4zOYjsVhyDroVLDVr1tRI6l9//VVzuBjooqCloL2wmEhqKn+kdVDhULKknjNv3rz6nTnegOaCgEKwkNoBIcNncy1vXhqEChHYs2bN0u8Cp+zkRrggYdr+eV8tFkv2gk2DidbRKMzczMkIhmEgSZUhlSCxWCyWrGBtJBaLJWasILFYLDEi8v9H+UGg31ifvAAAAABJRU5ErkJggg==;" vertex="1" parent="7">
                    <mxGeometry x="440" y="221.39" width="311.56" height="177.38" as="geometry"/>
                </mxCell>
            </root>
        </mxGraphModel>
    </diagram>
</mxfile>